<?xml version="1.0" standalone="no"?>
<!DOCTYPE svg PUBLIC "-//W3C//DTD SVG 20010904//EN"
 "http://www.w3.org/TR/2001/REC-SVG-20010904/DTD/svg10.dtd">
<svg version="1.0" xmlns="http://www.w3.org/2000/svg"
 width="1254.000000pt" height="1254.000000pt" viewBox="0 0 1254.000000 1254.000000"
 preserveAspectRatio="xMidYMid meet">

<g transform="translate(0.000000,1254.000000) scale(0.100000,-0.100000)"
fill="#000000" stroke="none">
<path d="M6260 11531 l-345 -207 -3 -3212 -2 -3212 -38 -24 c-312 -197 -428
-598 -269 -929 59 -121 120 -195 223 -270 l84 -62 0 -1407 0 -1407 23 -7 c29
-10 626 -10 655 0 l22 7 0 1409 0 1408 38 23 c155 94 285 275 328 457 25 104
15 284 -20 386 -53 157 -158 295 -288 381 l-58 38 -2 3418 -3 3418 -345 -208z"/>
<path d="M5400 10717 c-19 -13 -165 -102 -325 -197 -159 -95 -298 -180 -307
-188 -17 -14 -18 -132 -18 -2206 l0 -2191 -96 -95 c-334 -329 -546 -737 -631
-1210 -23 -126 -26 -174 -27 -365 -1 -169 3 -245 17 -330 82 -493 299 -920
638 -1255 l99 -98 0 -730 0 -730 98 -41 c193 -80 493 -181 577 -193 20 -3 20
3 23 1048 l2 1052 -87 63 c-413 300 -660 834 -613 1329 41 433 263 827 612
1088 l88 65 0 2604 c0 1431 -3 2603 -8 2603 -4 0 -23 -10 -42 -23z"/>
<path d="M7077 10733 c-4 -3 -7 -1175 -7 -2604 l0 -2597 81 -57 c336 -236 582
-661 620 -1073 25 -277 -20 -529 -141 -779 -110 -230 -265 -420 -459 -563
l-101 -75 0 -1047 c0 -576 4 -1049 8 -1052 22 -14 474 136 638 211 l54 24 0
733 0 732 71 64 c160 143 333 373 443 590 157 309 231 596 243 941 21 626
-202 1197 -644 1649 l-113 114 0 2191 0 2191 -322 194 c-178 106 -332 200
-344 207 -11 7 -24 10 -27 6z"/>
<path d="M4250 9428 c-19 -12 -172 -104 -340 -206 -168 -101 -311 -188 -317
-194 -10 -8 -13 -259 -13 -1194 l0 -1184 -33 -37 c-142 -160 -328 -445 -455
-698 -291 -583 -412 -1194 -362 -1831 47 -591 276 -1216 635 -1728 217 -311
533 -630 841 -851 l79 -57 3 476 2 477 -83 92 c-407 451 -641 952 -723 1547
-24 174 -24 512 0 675 87 591 341 1124 739 1552 l67 71 -2 1556 -3 1556 -35
-22z"/>
<path d="M8230 7889 l0 -1551 89 -96 c209 -228 348 -427 475 -681 136 -271
212 -511 263 -824 35 -221 37 -538 4 -756 -53 -347 -167 -682 -332 -969 -122
-213 -307 -458 -448 -597 l-51 -49 0 -463 c0 -271 4 -463 9 -463 12 0 208 141
302 218 728 590 1206 1492 1280 2417 14 181 7 530 -16 695 -86 641 -345 1240
-759 1757 l-106 132 -2 1183 -3 1182 -348 208 c-192 114 -350 208 -353 208 -2
0 -4 -698 -4 -1551z"/>
</g>
</svg>
