<?xml version="1.0" standalone="no"?>
<!DOCTYPE svg PUBLIC "-//W3C//DTD SVG 20010904//EN"
 "http://www.w3.org/TR/2001/REC-SVG-20010904/DTD/svg10.dtd">
<svg version="1.0" xmlns="http://www.w3.org/2000/svg"
 width="720.000000pt" height="720.000000pt" viewBox="0 0 720.000000 720.000000"
 preserveAspectRatio="xMidYMid meet">

<g transform="translate(0.000000,720.000000) scale(0.100000,-0.100000)"
fill="#000000" stroke="none">
<path d="M3420 5052 c0 -755 3 -991 12 -1000 14 -14 314 -17 336 -4 10 7 12
213 10 998 l-3 989 -177 3 -178 2 0 -988z"/>
<path d="M4876 5513 c-9 -9 -7 -3821 2 -3827 8 -5 53 22 245 147 l107 69 0
1694 0 1695 -147 95 c-82 53 -160 104 -174 114 -15 11 -29 16 -33 13z"/>
<path d="M2144 5403 l-161 -105 -5 -1691 c-3 -931 -3 -1696 -1 -1702 5 -15
336 -224 345 -219 4 3 8 864 8 1915 0 1521 -3 1909 -12 1908 -7 0 -86 -48
-174 -106z"/>
<path d="M2925 5129 c-3 -8 -4 -700 -3 -1539 l3 -1525 153 -3 152 -3 0 1536 0
1535 -134 0 c-74 0 -141 3 -150 6 -9 3 -18 0 -21 -7z"/>
<path d="M3974 5125 c-2 -5 -3 -696 -2 -1535 l3 -1525 150 0 150 0 0 1530 0
1530 -149 5 c-94 3 -150 1 -152 -5z"/>
<path d="M1577 4809 l-177 -110 2 -1106 3 -1106 169 -103 c93 -57 172 -104
177 -104 5 0 9 573 9 1320 0 726 -1 1320 -2 1320 -2 0 -83 -50 -181 -111z"/>
<path d="M5440 3601 c0 -727 4 -1321 8 -1321 8 0 214 122 310 183 l42 27 -2
1107 -3 1106 -132 83 c-73 45 -153 95 -178 109 l-45 27 0 -1321z"/>
<path d="M2503 4423 c-10 -4 -13 -178 -13 -823 0 -771 1 -819 18 -824 9 -3 71
-2 137 2 l120 7 3 818 2 817 -114 0 c-63 0 -120 2 -128 4 -7 3 -19 2 -25 -1z"/>
<path d="M4449 4419 c-5 -3 -8 -344 -7 -825 l3 -819 110 -2 c61 -1 120 0 133
2 l22 5 0 820 0 819 -126 3 c-69 2 -130 0 -135 -3z"/>
<path d="M945 4207 l-240 -153 0 -459 0 -459 230 -148 c127 -81 236 -147 243
-148 9 0 12 158 12 760 0 418 -1 760 -2 760 -2 0 -111 -69 -243 -153z"/>
<path d="M6010 3600 c0 -481 4 -760 10 -760 9 0 212 126 398 247 l82 54 -2
457 -3 456 -215 138 c-118 76 -227 145 -242 153 l-28 16 0 -761z"/>
<path d="M3492 3814 c-85 -42 -132 -121 -132 -219 0 -71 20 -119 73 -173 64
-66 159 -88 246 -57 100 35 164 123 163 229 0 72 -17 118 -63 171 -69 79 -187
99 -287 49z"/>
<path d="M3425 3138 c-3 -7 -4 -452 -3 -988 l3 -975 155 -3 c85 -1 165 0 178
3 l22 5 -2 983 -3 982 -173 3 c-132 2 -174 0 -177 -10z"/>
</g>
</svg>
