<svg xmlns="http://www.w3.org/2000/svg" width="1024" height="1024" viewBox="0 0 1024 1024">
<g>
<path d="M 478.00 861.32 C469.94,860.50 447.76,856.62 438.00,854.32 C388.76,842.75 340.57,818.46 301.46,785.48 C232.09,726.99 190.01,639.32 190.00,553.25 L 190.00 539.00 L 217.50 539.00 L 245.00 539.00 L 245.00 548.75 C245.01,590.88 259.24,636.67 283.74,673.36 C312.08,715.81 354.72,750.73 404.00,771.83 C429.98,782.95 464.61,792.24 488.75,794.56 L 496.00 795.26 L 496.00 828.63 L 496.00 862.00 L 488.75 861.84 C484.76,861.75 479.92,861.52 478.00,861.32 ZM 519.79 824.39 L 520.07 786.50 L 533.79 785.78 C601.45,782.22 661.90,756.78 707.85,712.52 C752.17,669.84 779.00,607.93 779.00,548.33 L 779.00 539.00 L 806.62 539.00 L 834.25 539.00 L 833.71 559.75 C833.15,580.85 831.33,595.97 827.09,614.72 C800.77,731.12 708.42,823.75 589.52,852.99 C573.31,856.98 547.57,860.86 532.13,861.64 L 519.50 862.28 L 519.79 824.39 ZM 484.50 754.43 C396.91,741.01 324.31,690.06 292.93,620.00 C287.58,608.06 283.94,597.05 280.74,583.12 C278.88,575.05 278.52,570.51 278.51,555.00 C278.50,538.73 278.79,535.36 280.91,527.00 C288.54,496.90 305.49,471.64 334.00,447.84 C341.09,441.92 359.97,429.00 361.52,429.00 C362.52,429.00 391.00,466.17 391.00,467.47 C391.00,467.70 387.00,470.63 382.11,473.98 C357.07,491.13 340.31,513.05 334.86,535.77 C331.41,550.17 333.39,570.28 339.88,586.72 C357.28,630.75 396.05,665.67 447.50,683.65 C457.33,687.09 475.13,691.63 484.00,692.96 C488.12,693.58 492.51,694.30 493.75,694.56 L 496.00 695.04 L 496.00 725.52 C496.00,749.29 495.72,755.98 494.75,755.90 C494.06,755.85 489.45,755.19 484.50,754.43 ZM 519.00 712.68 L 519.00 683.16 L 525.75 682.60 C563.65,679.47 582.78,674.83 608.67,662.49 C655.52,640.15 686.21,602.26 693.46,557.79 C694.29,552.68 695.09,546.92 695.24,545.00 L 695.50 541.50 L 722.00 541.50 L 748.50 541.50 L 748.27 549.50 C747.21,587.06 733.50,622.97 707.98,655.00 C700.26,664.69 681.43,683.33 672.43,690.20 C632.81,720.45 582.77,738.58 530.75,741.53 L 519.00 742.20 L 519.00 712.68 ZM 482.38 657.48 C422.65,646.55 376.64,605.23 365.99,552.94 C362.78,537.22 359.91,538.92 389.15,539.23 L 414.30 539.50 L 415.98 546.50 C421.54,569.69 441.25,590.22 468.30,601.00 C476.76,604.37 489.91,608.00 493.66,608.00 L 496.00 608.00 L 496.00 633.50 L 496.00 659.00 L 492.75 658.89 C490.96,658.83 486.29,658.20 482.38,657.48 ZM 519.00 621.65 L 519.00 597.30 L 527.25 596.71 C539.37,595.85 550.22,593.37 561.50,588.87 C583.47,580.11 598.35,567.17 607.63,548.74 C620.98,522.24 613.74,491.76 588.49,468.14 C566.68,447.74 537.09,435.24 484.00,424.02 C450.02,416.84 430.20,411.45 413.97,404.99 C371.68,388.14 344.39,363.35 334.02,332.35 C329.84,319.85 328.78,303.21 331.36,290.72 C340.98,244.23 390.25,208.36 460.00,197.07 C473.03,194.96 495.00,193.01 505.75,193.00 L 512.00 193.00 L 512.00 219.00 L 512.00 245.00 L 503.25 245.00 C491.36,245.00 469.64,247.62 457.50,250.51 C423.20,258.68 399.20,274.21 391.81,293.00 C388.62,301.13 388.77,312.65 392.16,320.00 C402.43,342.25 431.14,358.14 482.50,370.01 C541.73,383.69 562.60,390.54 589.50,405.11 C605.42,413.73 618.05,423.05 630.00,435.00 C642.04,447.04 649.23,457.00 655.63,470.50 C683.23,528.78 659.58,591.64 597.00,626.29 C587.83,631.37 572.04,637.45 560.41,640.38 C550.37,642.92 529.73,646.00 522.79,646.00 L 519.00 646.00 L 519.00 621.65 ZM 500.93 560.69 C482.60,555.50 471.50,536.80 476.44,519.41 C480.76,504.20 492.04,495.05 507.50,494.23 C518.53,493.65 525.41,496.25 533.08,503.92 C540.73,511.57 543.35,518.46 542.79,529.50 C542.45,536.21 541.84,538.52 539.01,543.83 C533.42,554.32 523.66,560.66 511.78,561.53 C508.19,561.79 503.54,561.43 500.93,560.69 ZM 697.98 516.23 C697.97,515.83 697.52,511.30 696.98,506.16 C694.44,482.01 684.24,456.81 668.54,435.89 C655.20,418.12 631.40,398.23 611.61,388.32 C607.70,386.37 604.39,384.67 604.25,384.55 C604.12,384.44 604.64,382.35 605.41,379.92 C608.19,371.20 615.00,346.07 615.00,344.55 C615.00,342.28 616.42,342.58 628.02,347.32 C647.06,355.09 667.10,367.51 683.30,381.55 C712.12,406.54 734.23,443.83 743.43,483.00 C746.12,494.41 748.55,513.13 747.65,515.46 C747.18,516.68 743.10,516.92 722.55,516.94 C709.05,516.96 697.99,516.64 697.98,516.23 ZM 517.00 317.01 L 517.00 291.00 L 523.75 290.98 C532.46,290.95 552.27,287.02 563.23,283.15 C593.74,272.38 614.07,253.55 618.59,231.88 C623.78,206.99 603.89,181.11 568.74,167.01 C557.73,162.59 541.20,158.38 531.50,157.52 C527.65,157.18 522.81,156.66 520.75,156.36 L 517.00 155.82 L 517.00 130.27 L 517.00 104.72 L 524.75 105.42 C608.61,112.89 668.95,156.55 676.04,214.89 C678.76,237.25 671.14,262.88 655.89,282.64 C631.80,313.87 580.58,338.50 533.50,341.50 C528.55,341.81 522.81,342.29 520.75,342.55 L 517.00 343.02 L 517.00 317.01 Z" fill="rgba(0,0,0,1)"/>
</g>
</svg>