<svg xmlns="http://www.w3.org/2000/svg" width="1024" height="1024" viewBox="0 0 1024 1024">
<g>
<path d="M 514.53 889.20 C514.24,888.91 514.00,874.58 514.00,857.35 L 514.00 826.04 L 516.25 825.53 C517.49,825.24 523.79,823.89 530.25,822.52 C564.21,815.33 606.71,802.70 655.50,785.30 C680.10,776.53 718.87,761.27 734.44,754.22 C747.23,748.44 744.99,752.34 754.59,719.14 C773.29,654.50 784.37,598.59 790.39,538.50 L 792.50 517.50 L 822.94 517.24 C839.67,517.09 853.69,517.31 854.07,517.74 C855.91,519.74 849.84,582.90 844.91,613.00 C834.97,673.72 818.66,741.46 803.30,785.84 L 799.72 796.18 L 792.11 799.67 C719.88,832.86 610.26,870.18 544.00,884.15 C527.51,887.63 515.09,889.76 514.53,889.20 ZM 492.00 854.44 C440.17,848.90 360.57,833.86 265.50,811.65 C214.63,799.76 219.09,801.11 217.02,797.04 C213.61,790.32 200.70,758.37 192.37,736.00 C190.42,730.78 187.80,723.80 186.54,720.50 C179.39,701.77 164.13,654.08 154.39,620.00 C144.15,584.19 132.75,536.25 129.48,515.24 L 128.82 510.97 L 159.58 511.24 L 190.33 511.50 L 193.54 526.00 C205.00,577.71 228.28,650.80 252.78,712.00 C266.91,747.29 264.48,743.36 273.65,745.75 C335.95,761.97 354.24,766.29 395.40,774.47 C424.98,780.36 477.20,789.12 494.25,791.07 L 505.00 792.29 L 505.00 824.15 C505.00,841.67 504.89,855.95 504.75,855.89 C504.61,855.83 498.88,855.18 492.00,854.44 ZM 514.00 743.54 L 514.00 714.08 L 517.75 713.09 C519.81,712.55 524.65,711.39 528.50,710.52 C557.01,704.03 609.88,685.24 640.14,670.82 C651.43,665.44 653.05,664.36 653.90,661.61 C665.32,624.76 675.87,570.57 679.02,532.50 C679.62,525.35 680.29,518.94 680.52,518.25 C680.84,517.29 687.86,517.00 711.11,517.00 L 741.28 517.00 L 740.60 525.75 C736.78,575.57 724.02,638.70 705.47,699.50 L 702.87 708.04 L 696.05 711.47 C659.81,729.73 601.73,751.85 562.00,762.54 C547.09,766.56 518.39,772.97 515.25,772.99 C514.28,773.00 514.00,766.45 514.00,743.54 ZM 493.00 741.86 C445.62,736.26 378.60,721.47 321.18,703.94 L 303.85 698.65 L 300.92 692.84 C284.14,659.60 262.23,600.01 250.05,554.50 C245.92,539.07 240.00,513.71 240.00,511.47 C240.00,511.19 252.90,511.09 268.67,511.23 L 297.33 511.50 L 298.09 514.00 C298.50,515.38 300.21,521.45 301.89,527.50 C311.45,561.92 330.55,612.05 345.53,642.02 L 349.79 650.54 L 368.14 655.73 C409.10,667.33 444.19,674.73 481.00,679.55 C487.33,680.38 495.31,681.54 498.75,682.13 L 505.00 683.21 L 505.00 713.10 L 505.00 743.00 L 502.75 742.87 C501.51,742.80 497.12,742.34 493.00,741.86 ZM 514.56 661.22 C514.25,660.92 514.00,649.25 514.00,635.30 C514.00,615.86 514.29,609.86 515.25,609.59 C527.37,606.24 550.59,597.78 560.28,593.18 C574.49,586.44 573.09,588.35 577.51,569.50 C580.01,558.83 584.21,534.46 585.56,522.75 L 586.23 517.00 L 611.12 517.00 C634.15,517.00 636.00,517.13 635.99,518.75 C635.99,519.71 635.34,525.69 634.55,532.02 C631.06,559.96 624.10,593.83 617.36,615.62 L 614.84 623.74 L 602.17 629.83 C580.20,640.40 553.93,650.63 533.00,656.79 C516.62,661.61 515.27,661.93 514.56,661.22 ZM 483.50 634.55 C455.79,630.05 430.03,624.19 405.68,616.84 L 391.85 612.67 L 387.54 604.08 C375.89,580.88 356.64,531.11 352.60,513.73 L 351.95 510.97 L 378.09 511.23 L 404.23 511.50 L 408.51 522.50 C413.08,534.25 419.25,547.94 425.34,559.82 C428.28,565.55 429.82,567.44 432.42,568.53 C440.66,571.98 471.35,579.41 490.00,582.48 C495.23,583.35 500.74,584.30 502.25,584.60 L 505.00 585.16 L 505.00 611.08 L 505.00 637.00 L 501.25 636.91 C499.19,636.86 491.20,635.80 483.50,634.55 ZM 506.29 552.89 C489.96,550.90 476.25,539.32 471.03,523.10 C467.67,512.64 468.39,502.92 473.29,492.60 C479.57,479.37 489.80,471.39 504.36,468.36 C532.20,462.55 558.56,488.12 554.13,516.62 C550.47,540.13 529.86,555.75 506.29,552.89 ZM 597.72 498.58 C595.05,487.44 590.67,474.35 585.54,462.20 L 580.95 451.32 L 567.72 447.19 C555.42,443.34 537.30,438.74 523.75,436.01 L 518.00 434.86 L 518.00 409.02 C518.00,384.93 518.12,383.21 519.75,383.58 C520.71,383.80 527.35,385.12 534.50,386.52 C558.63,391.26 591.91,400.04 614.81,407.71 L 623.11 410.50 L 628.57 423.98 C631.58,431.39 636.32,444.44 639.13,452.98 C643.94,467.66 653.00,501.31 653.00,504.52 C653.00,505.79 649.22,506.00 626.25,505.99 L 599.50 505.99 L 597.72 498.58 ZM 707.54 503.75 C701.34,476.05 692.96,446.60 683.42,419.00 C677.66,402.31 665.44,371.08 664.18,369.81 C663.17,368.79 630.87,359.69 612.00,355.11 C582.80,348.02 550.09,341.29 521.75,336.54 L 518.00 335.91 L 518.00 305.45 L 518.00 275.00 L 520.25 275.00 C527.63,275.00 576.49,283.50 607.00,290.09 C617.17,292.29 628.65,294.77 632.50,295.60 C640.93,297.43 690.33,310.08 701.35,313.25 L 709.21 315.50 L 713.72 326.00 C734.92,375.38 761.15,459.86 768.45,502.25 L 769.09 506.00 L 738.56 506.00 L 708.04 506.00 L 707.54 503.75 ZM 821.58 504.75 C821.38,504.06 820.22,498.77 819.00,493.00 C807.71,439.41 786.40,370.42 759.71,301.00 C747.95,270.42 749.10,272.46 742.46,270.53 C693.96,256.43 596.68,236.65 530.25,227.39 L 518.00 225.68 L 518.00 193.96 L 518.00 162.25 L 522.75 162.67 C563.15,166.30 629.89,177.18 687.50,189.51 C694.10,190.92 702.72,192.72 706.66,193.51 C710.59,194.29 716.67,195.60 720.16,196.42 C723.64,197.23 731.67,199.03 738.00,200.41 C744.33,201.79 756.92,204.57 766.00,206.58 C775.08,208.59 785.42,210.87 789.00,211.64 C792.58,212.42 796.25,213.28 797.16,213.56 C799.15,214.18 799.32,214.60 812.40,250.83 C832.88,307.55 850.42,361.91 865.38,415.00 C869.89,431.00 888.00,503.54 888.00,505.60 C888.00,505.82 873.14,506.00 854.97,506.00 C829.40,506.00 821.86,505.72 821.58,504.75 ZM 156.01 501.25 C156.01,500.84 156.67,494.65 157.47,487.50 C160.19,463.16 168.15,418.05 175.99,382.50 C177.69,374.80 179.48,366.48 179.98,364.00 C185.35,337.34 200.88,278.39 215.09,230.76 L 217.40 223.02 L 231.95 216.87 C277.06,197.81 320.29,181.68 366.00,166.87 C395.46,157.32 413.22,152.13 443.00,144.36 C454.67,141.31 494.84,132.42 501.00,131.51 C503.48,131.15 506.29,130.63 507.25,130.36 C508.89,129.90 509.00,131.82 509.00,160.83 L 509.00 191.79 L 499.75 193.46 C473.55,198.17 421.84,212.49 386.50,224.82 C353.57,236.31 312.44,252.27 287.81,263.13 L 274.11 269.16 L 269.63 283.33 C246.51,356.38 226.61,438.98 218.93,493.75 L 217.77 502.00 L 186.88 502.00 C169.90,502.00 156.00,501.66 156.01,501.25 ZM 266.00 499.34 C266.00,497.87 267.16,490.11 268.58,482.09 C277.02,434.32 291.82,378.99 309.66,328.48 L 317.16 307.24 L 330.83 300.72 C368.16,282.93 414.66,266.52 457.50,256.03 C472.18,252.44 495.86,247.56 503.77,246.51 L 509.03 245.81 L 508.77 274.12 L 508.50 302.43 L 496.00 304.60 C474.01,308.42 442.23,316.69 419.00,324.64 C397.84,331.87 376.05,340.45 365.99,345.51 L 359.48 348.78 L 353.78 369.14 C341.83,411.84 331.04,461.49 326.81,493.25 L 325.64 502.00 L 295.82 502.00 L 266.00 502.00 L 266.00 499.34 ZM 370.01 501.27 C370.02,499.71 373.94,478.20 375.88,469.00 C379.73,450.79 387.09,423.91 394.10,402.43 L 398.05 390.36 L 412.72 384.11 C430.17,376.68 461.46,366.08 476.63,362.47 C485.20,360.43 507.14,356.00 508.69,356.00 C508.86,356.00 509.00,367.22 509.00,380.93 L 509.00 405.86 L 503.25 406.97 C482.80,410.90 460.79,417.58 445.83,424.38 L 438.71 427.62 L 435.33 439.06 C430.60,455.07 426.31,472.19 423.08,488.00 L 420.31 501.50 L 395.16 501.77 C381.32,501.91 370.00,501.69 370.01,501.27 Z" fill="rgba(0,0,0,1)"/>
</g>
</svg>